<?xml version="1.0" encoding="UTF-8"?>
<svg version="1.1" xmlns="http://www.w3.org/2000/svg" width="150" height="218">
<path d="M0 0 C7.55859111 5.31994017 12.22437412 12.61386477 14.59765625 21.52734375 C14.73239748 24.19522017 14.78963486 26.74380816 14.72265625 29.40234375 C14.71363281 30.09070312 14.70460938 30.7790625 14.6953125 31.48828125 C14.67198138 33.16812213 14.63611951 34.84778121 14.59765625 36.52734375 C15.15227539 36.51687012 15.70689453 36.50639648 16.27832031 36.49560547 C18.80138584 36.45392371 21.32437878 36.42797937 23.84765625 36.40234375 C24.72035156 36.38558594 25.59304687 36.36882813 26.4921875 36.3515625 C27.33652344 36.34511719 28.18085937 36.33867188 29.05078125 36.33203125 C29.82583008 36.32155762 30.60087891 36.31108398 31.39941406 36.30029297 C33.91814301 36.560446 35.46739677 37.16818786 37.59765625 38.52734375 C41.4001683 44.91918543 41.62040986 52.12987983 42.34765625 59.40234375 C42.48558594 60.65015625 42.62351563 61.89796875 42.765625 63.18359375 C43.47769674 69.92258202 43.47769674 69.92258202 43.59765625 72.52734375 C41.92227463 74.20272537 39.71854985 74.09555922 37.42578125 74.46484375 C36.36875 74.63757813 35.31171875 74.8103125 34.22265625 74.98828125 C33.10890625 75.16617188 31.99515625 75.3440625 30.84765625 75.52734375 C28.66525449 75.88083136 26.48295887 76.23497506 24.30078125 76.58984375 C22.84140137 76.82380859 22.84140137 76.82380859 21.35253906 77.0625 C20.44342773 77.21589844 19.53431641 77.36929688 18.59765625 77.52734375 C17.67823242 77.67429687 16.75880859 77.82125 15.81152344 77.97265625 C13.45337389 78.29056574 13.45337389 78.29056574 12.47265625 80.33984375 C12.18390625 81.06171875 11.89515625 81.78359375 11.59765625 82.52734375 C10.62183866 83.8784758 9.62735884 85.21681319 8.59765625 86.52734375 C6.38024985 86.05218524 4.7183228 85.60439274 2.79296875 84.375 C-0.33780783 83.16614143 -1.73177945 84.02566189 -4.77734375 85.33984375 C-11.94058006 88.52841133 -20.77979218 92.90479218 -26.40234375 98.52734375 C-25.66709473 98.6881543 -24.9318457 98.84896484 -24.17431641 99.01464844 C-20.78999132 99.76010386 -17.40872046 100.51863139 -14.02734375 101.27734375 C-12.87105469 101.53 -11.71476562 101.78265625 -10.5234375 102.04296875 C0.10189098 104.44417293 10.27973789 106.94098621 17.59765625 115.52734375 C23.03829435 124.18905616 24.96280816 132.96116284 23.13671875 143.08203125 C20.7040269 152.26902048 16.26616347 158.97961222 8.33203125 164.23828125 C0.09596209 168.12099957 -7.67464235 169.05097372 -16.71484375 168.96484375 C-17.81699219 168.95799561 -18.91914062 168.95114746 -20.0546875 168.9440918 C-33.67398857 168.67544867 -46.14670686 164.90392605 -56.40234375 155.52734375 C-57.7760272 153.89377424 -59.1217189 152.23484355 -60.40234375 150.52734375 C-59.03965691 146.49635913 -57.23688059 143.93667624 -54.33984375 140.83984375 C-51.53941262 137.91302574 -51.53941262 137.91302574 -49.40234375 134.52734375 C-47.21484375 134.65234375 -47.21484375 134.65234375 -44.40234375 135.52734375 C-43.19300693 136.96547403 -41.98880043 138.40952621 -40.84765625 139.90234375 C-34.76456584 146.74171027 -25.91528899 148.84534777 -17.15234375 149.48828125 C-11.75121645 149.56500181 -7.89357433 148.63783461 -3.46484375 145.33984375 C-0.9123495 141.85916977 -0.40234375 139.8372784 -0.40234375 135.52734375 C-1.25046682 131.95311082 -1.91431003 129.45603975 -5.15014648 127.43652344 C-11.47743212 124.68065843 -17.874062 123.00569411 -24.58984375 121.46484375 C-30.93395672 120.00201158 -36.62955624 118.63010195 -42.40234375 115.52734375 C-43.39234375 115.52734375 -44.38234375 115.52734375 -45.40234375 115.52734375 C-60.55864261 131.7337326 -68.97579467 154.72561909 -75.40234375 175.52734375 C-73.45521484 175.60082031 -73.45521484 175.60082031 -71.46875 175.67578125 C-69.63406447 175.7500746 -67.79943324 175.82571547 -65.96484375 175.90234375 C-64.45821167 175.9650647 -64.45821167 175.9650647 -62.92114258 176.02905273 C-57.96460039 176.25366945 -53.03371488 176.52987494 -48.09765625 177.0390625 C-15.26252356 180.39310896 18.36564111 179.68563417 51.11889648 175.80273438 C53.59765625 175.52734375 53.59765625 175.52734375 55.59765625 175.52734375 C55.59765625 177.17734375 55.59765625 178.82734375 55.59765625 180.52734375 C52.48280219 182.08477078 49.10768834 181.9909161 45.6796875 182.24609375 C44.87930557 182.30866867 44.07892365 182.37124359 43.25428772 182.43571472 C40.63994339 182.63810855 38.02514224 182.83342645 35.41015625 183.02734375 C34.5191925 183.09426422 33.62822876 183.16118469 32.71026611 183.23013306 C-2.06489573 185.83366512 -37.34927265 187.87938399 -71.90625 182.20703125 C-75.55448463 181.62093889 -79.14602092 181.3209209 -82.83984375 181.15234375 C-86.66105944 180.87040162 -87.31042944 180.59903691 -90.52734375 178.08984375 C-97.81048147 168.1362222 -91.08182805 144.81506349 -89.75 133.12890625 C-89.48695267 130.79920954 -89.22413441 128.46948696 -88.96153259 126.13973999 C-88.41357503 121.28670719 -87.86273216 116.43401306 -87.30981445 111.58154297 C-86.60368719 105.38223754 -85.90506516 99.18211298 -85.20861149 92.98171425 C-84.6686405 88.18225177 -84.12459426 83.38325785 -83.5793438 78.58439255 C-83.32013258 76.29853062 -83.06219416 74.01252397 -82.80558968 71.72636795 C-82.44623982 68.5301442 -82.08136117 65.33459694 -81.71508789 62.13916016 C-81.55991699 60.74402695 -81.55991699 60.74402695 -81.40161133 59.32070923 C-79.54770609 43.32332611 -79.54770609 43.32332611 -76.421875 38.421875 C-71.9999287 35.64743263 -68.1936718 35.98039228 -63.08984375 36.21484375 C-62.15849609 36.23740234 -61.22714844 36.25996094 -60.26757812 36.28320312 C-57.97750415 36.34192297 -55.690765 36.42397517 -53.40234375 36.52734375 C-53.44875 35.48835938 -53.49515625 34.449375 -53.54296875 33.37890625 C-53.89249198 22.35436088 -52.950701 14.47861918 -45.65234375 5.71484375 C-33.20901547 -7.35180524 -15.37920368 -9.42757689 0 0 Z M-40.40234375 15.52734375 C-44.5413892 22.23851031 -43.40234375 28.4318879 -43.40234375 36.52734375 C-27.56234375 36.52734375 -11.72234375 36.52734375 4.59765625 36.52734375 C4.72021246 22.62278797 4.72021246 22.62278797 -2.01171875 11.68359375 C-7.08171765 6.93919111 -12.44238326 4.86153284 -19.27734375 4.08984375 C-27.92053199 4.49738111 -35.29610769 8.63392507 -40.40234375 15.52734375 Z M-50.40234375 47.52734375 C-51.06234375 48.18734375 -51.72234375 48.84734375 -52.40234375 49.52734375 C-52.08382605 51.63555172 -52.08382605 51.63555172 -51.40234375 53.52734375 C-49.51055172 54.20882605 -49.51055172 54.20882605 -47.40234375 54.52734375 C-46.74234375 53.86734375 -46.08234375 53.20734375 -45.40234375 52.52734375 C-45.72086145 50.41913578 -45.72086145 50.41913578 -46.40234375 48.52734375 C-48.29413578 47.84586145 -48.29413578 47.84586145 -50.40234375 47.52734375 Z M6.59765625 48.52734375 C6.59765625 50.17734375 6.59765625 51.82734375 6.59765625 53.52734375 C8.25380282 53.90953142 9.92222649 54.24129477 11.59765625 54.52734375 C12.89399246 53.4608926 12.89399246 53.4608926 12.66015625 50.96484375 C12.63953125 50.16046875 12.61890625 49.35609375 12.59765625 48.52734375 C9.54852397 47.51623282 9.54852397 47.51623282 6.59765625 48.52734375 Z " fill="#E9690D" transform="translate(94.40234375,26.47265625)"/>
<path d="M0 0 C1.87911434 1.6928958 3.28905992 3.49266606 4.734375 5.5625 C1.984375 10.4375 1.984375 10.4375 -0.265625 11.5625 C-0.95049225 12.88657669 -1.61432703 14.22159241 -2.265625 15.5625 C-3.24144259 16.91363205 -4.23592241 18.25196944 -5.265625 19.5625 C-7.4830314 19.08734149 -9.14495845 18.63954899 -11.0703125 17.41015625 C-14.20108908 16.20129768 -15.5950607 17.06081814 -18.640625 18.375 C-25.80386131 21.56356758 -34.64307343 25.93994843 -40.265625 31.5625 C-39.16275146 31.80371582 -39.16275146 31.80371582 -38.03759766 32.04980469 C-34.65327257 32.79526011 -31.27200171 33.55378764 -27.890625 34.3125 C-26.15619141 34.69148438 -26.15619141 34.69148438 -24.38671875 35.078125 C-13.76139027 37.47932918 -3.58354336 39.97614246 3.734375 48.5625 C9.1750131 57.22421241 11.09952691 65.99631909 9.2734375 76.1171875 C6.84074565 85.30417673 2.40288222 92.01476847 -5.53125 97.2734375 C-13.76731916 101.15615582 -21.5379236 102.08612997 -30.578125 102 C-31.68027344 101.99315186 -32.78242187 101.98630371 -33.91796875 101.97924805 C-47.53726982 101.71060492 -60.00998811 97.9390823 -70.265625 88.5625 C-71.63930845 86.92893049 -72.98500015 85.2699998 -74.265625 83.5625 C-72.90293816 79.53151538 -71.10016184 76.97183249 -68.203125 73.875 C-65.40269387 70.94818199 -65.40269387 70.94818199 -63.265625 67.5625 C-61.078125 67.6875 -61.078125 67.6875 -58.265625 68.5625 C-57.05628818 70.00063028 -55.85208168 71.44468246 -54.7109375 72.9375 C-48.62784709 79.77686652 -39.77857024 81.88050402 -31.015625 82.5234375 C-25.6144977 82.60015806 -21.75685558 81.67299086 -17.328125 78.375 C-14.77563075 74.89432602 -14.265625 72.87243465 -14.265625 68.5625 C-15.11448632 64.98515585 -15.77921648 62.48971902 -19.01782227 60.46948242 C-26.29194086 57.30046852 -33.75354983 55.59739457 -41.47070312 53.8515625 C-47.59469253 52.40696893 -52.76212482 50.62807513 -58.265625 47.5625 C-58.265625 46.9025 -58.265625 46.2425 -58.265625 45.5625 C-58.925625 45.5625 -59.585625 45.5625 -60.265625 45.5625 C-60.265625 44.9025 -60.265625 44.2425 -60.265625 43.5625 C-60.87019531 43.32273438 -61.47476563 43.08296875 -62.09765625 42.8359375 C-64.74044045 41.2835994 -65.53499989 39.88059563 -66.953125 37.1875 C-67.36949219 36.41664063 -67.78585938 35.64578125 -68.21484375 34.8515625 C-71.78083398 27.08327152 -71.06742965 17.8633735 -68.3671875 9.9140625 C-65.11876642 2.97948984 -59.22499183 -2.35999105 -52.265625 -5.4375 C-35.54488806 -11.22096271 -14.70769154 -10.48920637 0 0 Z " fill="#020001" transform="translate(108.265625,93.4375)"/>
<path d="M0 0 C7.55859111 5.31994017 12.22437412 12.61386477 14.59765625 21.52734375 C14.73239748 24.19522017 14.78963486 26.74380816 14.72265625 29.40234375 C14.71363281 30.09070312 14.70460938 30.7790625 14.6953125 31.48828125 C14.67198138 33.16812213 14.63611951 34.84778121 14.59765625 36.52734375 C13.93765625 36.52734375 13.27765625 36.52734375 12.59765625 36.52734375 C12.54867187 35.41875 12.4996875 34.31015625 12.44921875 33.16796875 C12.3741641 31.7044031 12.29861744 30.24086263 12.22265625 28.77734375 C12.19171875 28.04773437 12.16078125 27.318125 12.12890625 26.56640625 C11.92280685 22.78791719 11.68252782 19.74787707 9.59765625 16.52734375 C8.11265625 17.02234375 8.11265625 17.02234375 6.59765625 17.52734375 C6.60289307 18.09767334 6.60812988 18.66800293 6.61352539 19.25561523 C6.63423846 21.82534698 6.64729815 24.39506122 6.66015625 26.96484375 C6.66853516 27.86267578 6.67691406 28.76050781 6.68554688 29.68554688 C6.68876953 30.53955078 6.69199219 31.39355469 6.6953125 32.2734375 C6.70054932 33.06419678 6.70578613 33.85495605 6.71118164 34.66967773 C6.59765625 36.52734375 6.59765625 36.52734375 5.59765625 37.52734375 C4.00154643 37.6206808 2.40132197 37.64479747 0.80249023 37.64086914 C-0.21849258 37.64079361 -1.2394754 37.64071808 -2.29139709 37.64064026 C-3.40179855 37.63547897 -4.51220001 37.63031769 -5.65625 37.625 C-6.78683334 37.62358505 -7.91741669 37.6221701 -9.08226013 37.62071228 C-12.7098144 37.61509394 -16.33730799 37.60253833 -19.96484375 37.58984375 C-22.41731682 37.58483111 -24.86979085 37.5802678 -27.32226562 37.57617188 C-33.34898188 37.56511855 -39.37565251 37.54784163 -45.40234375 37.52734375 C-45.40234375 34.22734375 -45.40234375 30.92734375 -45.40234375 27.52734375 C-47.71234375 27.52734375 -50.02234375 27.52734375 -52.40234375 27.52734375 C-52.21671875 28.80609375 -52.03109375 30.08484375 -51.83984375 31.40234375 C-51.27734375 35.27734375 -51.27734375 35.27734375 -52.40234375 37.52734375 C-59.33234375 37.52734375 -66.26234375 37.52734375 -73.40234375 37.52734375 C-73.40234375 37.19734375 -73.40234375 36.86734375 -73.40234375 36.52734375 C-66.80234375 36.52734375 -60.20234375 36.52734375 -53.40234375 36.52734375 C-53.48484375 34.09359375 -53.56734375 31.65984375 -53.65234375 29.15234375 C-53.75177043 18.45857219 -51.00963961 11.34050137 -43.546875 3.50390625 C-31.17179973 -7.90190083 -14.13721222 -8.66622603 0 0 Z M-40.40234375 15.52734375 C-44.5413892 22.23851031 -43.40234375 28.4318879 -43.40234375 36.52734375 C-27.56234375 36.52734375 -11.72234375 36.52734375 4.59765625 36.52734375 C4.72021246 22.62278797 4.72021246 22.62278797 -2.01171875 11.68359375 C-7.08171765 6.93919111 -12.44238326 4.86153284 -19.27734375 4.08984375 C-27.92053199 4.49738111 -35.29610769 8.63392507 -40.40234375 15.52734375 Z " fill="#E56F1B" transform="translate(94.40234375,26.47265625)"/>
<path d="M0 0 C1.76953125 1.60546875 1.76953125 1.60546875 3 3 C2.07960937 3.40089844 1.15921875 3.80179687 0.2109375 4.21484375 C-7.47252901 7.64346542 -14.55321741 11.31959079 -21.34228516 16.32983398 C-22.9765625 17.47265625 -22.9765625 17.47265625 -26 19 C-29.46046125 18.27699297 -31.91423256 16.87461538 -34 14 C-34.68993892 10.6078003 -34.58220436 7.40616756 -34 4 C-26.56152269 -6.20134031 -10.4499258 -4.98886438 0 0 Z " fill="#E9690C" transform="translate(93,106)"/>
<path d="M0 0 C0 1.65 0 3.3 0 5 C-3.11485406 6.55742703 -6.48996791 6.46357235 -9.91796875 6.71875 C-10.71835068 6.78132492 -11.5187326 6.84389984 -12.34336853 6.90837097 C-14.95771286 7.1107648 -17.57251401 7.3060827 -20.1875 7.5 C-21.07846375 7.56692047 -21.96942749 7.63384094 -22.88739014 7.70278931 C-59.32418365 10.43072371 -95.8305502 12.06000265 -132 6 C-132 5.67 -132 5.34 -132 5 C-130.41676312 4.972807 -128.83338938 4.95351694 -127.25 4.9375 C-125.92742187 4.92009766 -125.92742187 4.92009766 -124.578125 4.90234375 C-122 5 -122 5 -120.23510742 5.50219727 C-117.3324503 6.14867655 -114.63348005 6.0932917 -111.66015625 6.0625 C-110.43232422 6.05476562 -109.20449219 6.04703125 -107.93945312 6.0390625 C-105.35872356 6.01306019 -102.77799439 5.98701864 -100.19726562 5.9609375 C-98.35358398 5.94933594 -98.35358398 5.94933594 -96.47265625 5.9375 C-95.35125244 5.92589844 -94.22984863 5.91429687 -93.07446289 5.90234375 C-90.25322757 5.99195656 -87.74042098 6.35121339 -85 7 C-85 7.66 -85 8.32 -85 9 C-84.01 9 -83.02 9 -82 9 C-82 8.34 -82 7.68 -82 7 C-79.22949974 6.8053162 -76.45886998 6.61897208 -73.6875 6.4375 C-72.90181641 6.38142578 -72.11613281 6.32535156 -71.30664062 6.26757812 C-70.1706543 6.19506836 -70.1706543 6.19506836 -69.01171875 6.12109375 C-67.96697388 6.05039673 -67.96697388 6.05039673 -66.90112305 5.97827148 C-65 6 -65 6 -62 7 C-62 6.34 -62 5.68 -62 5 C-61.34 5 -60.68 5 -60 5 C-60 5.66 -60 6.32 -60 7 C-57.69 7.33 -55.38 7.66 -53 8 C-53 7.34 -53 6.68 -53 6 C-54.65 5.67 -56.3 5.34 -58 5 C-58 4.67 -58 4.34 -58 4 C-56.68773438 3.96261719 -55.37546875 3.92523438 -54.0234375 3.88671875 C-40.9314077 3.44666054 -27.96191648 2.4107355 -14.94287109 1.01635742 C-13.11103271 0.8207019 -13.11103271 0.8207019 -11.2421875 0.62109375 C-9.61579346 0.44211548 -9.61579346 0.44211548 -7.95654297 0.25952148 C-5.28361078 0.02489498 -2.68101232 -0.04932666 0 0 Z " fill="#D47C34" transform="translate(150,202)"/>
<path d="M0 0 C12.48295916 0.47105506 24.90682413 1.18972379 37.35229492 2.26904297 C46.42218872 3.02457434 55.4883054 3.37859467 64.58691406 3.5703125 C66.12943848 3.61285156 66.12943848 3.61285156 67.703125 3.65625 C68.60708008 3.67494141 69.51103516 3.69363281 70.44238281 3.71289062 C73.2462929 4.027648 75.43767963 4.84401395 78 6 C78 6.66 78 7.32 78 8 C75.69 7.67 73.38 7.34 71 7 C71 6.34 71 5.68 71 5 C70.34 5 69.68 5 69 5 C69 5.66 69 6.32 69 7 C66.41703983 7.19522373 63.83395921 7.38144403 61.25 7.5625 C60.52039063 7.61857422 59.79078125 7.67464844 59.0390625 7.73242188 C55.45046349 7.97709908 52.44972775 7.99666259 49 7 C49 7.66 49 8.32 49 9 C48.01 9 47.02 9 46 9 C46 8.34 46 7.68 46 7 C44.59476074 7.01571045 44.59476074 7.01571045 43.16113281 7.03173828 C39.6274155 7.06617742 36.093881 7.09107035 32.56005859 7.10986328 C31.04147496 7.11981384 29.52290993 7.13337916 28.00439453 7.15087891 C18.7837455 7.25434493 10.06879307 6.9458199 1 5 C0.67 3.35 0.34 1.7 0 0 Z " fill="#E07424" transform="translate(19,202)"/>
<path d="M0 0 C0 1.65 0 3.3 0 5 C-2.68233629 6.34116814 -5.00188781 6.32164416 -7.99609375 6.53515625 C-9.79336914 6.66567383 -9.79336914 6.66567383 -11.62695312 6.79882812 C-12.88443359 6.88583984 -14.14191406 6.97285156 -15.4375 7.0625 C-17.31791992 7.19881836 -17.31791992 7.19881836 -19.23632812 7.33789062 C-28.50088111 8 -28.50088111 8 -32 8 C-32 7.34 -32 6.68 -32 6 C-30.02 5.67 -28.04 5.34 -26 5 C-28.97 4.67 -31.94 4.34 -35 4 C-35 3.67 -35 3.34 -35 3 C-30.8194143 2.56953896 -26.63850659 2.14239581 -22.45727539 1.71826172 C-21.03628491 1.57365552 -19.61538474 1.42815896 -18.19458008 1.28173828 C-16.14688097 1.07087189 -14.09887351 0.86325861 -12.05078125 0.65625 C-10.20480347 0.46772461 -10.20480347 0.46772461 -8.3215332 0.27539062 C-5.52373627 0.04342334 -2.8044021 -0.05585531 0 0 Z " fill="#E18543" transform="translate(150,202)"/>
<path d="M0 0 C0.495 0.99 0.495 0.99 1 2 C-0.98 2 -2.96 2 -5 2 C-4.505 4.475 -4.505 4.475 -4 7 C-2.68 7 -1.36 7 0 7 C0.33 6.34 0.66 5.68 1 5 C1.66 5 2.32 5 3 5 C1.53563715 9.63714903 1.53563715 9.63714903 -0.9375 11.3125 C-3 12 -3 12 -6 12 C-5.01 13.485 -5.01 13.485 -4 15 C-1.41619823 15.25030977 -1.41619823 15.25030977 1 15 C1 15.99 1 16.98 1 18 C2.30456502 19.45034604 2.30456502 19.45034604 4 20.6875 C4.99 21.450625 5.98 22.21375 7 23 C6.67 23.66 6.34 24.32 6 25 C5.05125 24.0925 4.1025 23.185 3.125 22.25 C-8.02711446 12.71674086 -23.10080973 12.60639406 -37 12 C-37 11.67 -37 11.34 -37 11 C-34.3753399 10.80569145 -31.75053235 10.61926762 -29.125 10.4375 C-28.00544922 10.35338867 -28.00544922 10.35338867 -26.86328125 10.26757812 C-21.2265625 9.88671875 -21.2265625 9.88671875 -19 11 C-17.52331663 11.0952699 -16.04224543 11.12985959 -14.5625 11.125 C-13.78003906 11.12757812 -12.99757813 11.13015625 -12.19140625 11.1328125 C-9.82104653 11.08382548 -9.82104653 11.08382548 -7 10 C-7 7.03 -7 4.06 -7 1 C-4.53721199 -0.231394 -2.7204945 -0.07159196 0 0 Z " fill="#D36C23" transform="translate(106,73)"/>
<path d="M0 0 C1.0625 1.875 1.0625 1.875 2 4 C1.67 4.66 1.34 5.32 1 6 C0.34 6 -0.32 6 -1 6 C-1.02578125 6.62648438 -1.0515625 7.25296875 -1.078125 7.8984375 C-1.13484375 8.71570312 -1.1915625 9.53296875 -1.25 10.375 C-1.31960937 11.59316406 -1.31960937 11.59316406 -1.390625 12.8359375 C-2 15 -2 15 -3.796875 16.2890625 C-6 17 -6 17 -10 17 C-10.45763495 11.27956317 -9.71653644 8.40116157 -6 4 C-4.0625284 2.47365042 -2.13249737 1.26011209 0 0 Z " fill="#EA680B" transform="translate(53,35)"/>
<path d="M0 0 C-0.33 1.32 -0.66 2.64 -1 4 C-1.99 4 -2.98 4 -4 4 C-4 4.99 -4 5.98 -4 7 C-7.3 6.34 -10.6 5.68 -14 5 C-14.33 4.01 -14.66 3.02 -15 2 C-14.34 2 -13.68 2 -13 2 C-13 1.34 -13 0.68 -13 0 C-14.65 0.33 -16.3 0.66 -18 1 C-18 0.01 -18 -0.98 -18 -2 C-12.06342522 -3.97885826 -5.70918814 -2.19584159 0 0 Z " fill="#EB690C" transform="translate(92,26)"/>
<path d="M0 0 C1.18916016 0.03544922 2.37832031 0.07089844 3.60351562 0.10742188 C4.75142578 0.15060547 5.89933594 0.19378906 7.08203125 0.23828125 C8.13237549 0.27606689 9.18271973 0.31385254 10.26489258 0.3527832 C13.22836478 0.69218011 15.48767238 1.44882145 18.1875 2.6875 C18.1875 3.3475 18.1875 4.0075 18.1875 4.6875 C15.8775 4.3575 13.5675 4.0275 11.1875 3.6875 C11.1875 3.0275 11.1875 2.3675 11.1875 1.6875 C10.5275 1.6875 9.8675 1.6875 9.1875 1.6875 C9.1875 2.3475 9.1875 3.0075 9.1875 3.6875 C6.60453983 3.88272373 4.02145921 4.06894403 1.4375 4.25 C0.70789063 4.30607422 -0.02171875 4.36214844 -0.7734375 4.41992188 C-4.36203651 4.66459908 -7.36277225 4.68416259 -10.8125 3.6875 C-10.8125 4.3475 -10.8125 5.0075 -10.8125 5.6875 C-11.8025 5.6875 -12.7925 5.6875 -13.8125 5.6875 C-14.1425 4.0375 -14.4725 2.3875 -14.8125 0.6875 C-10.53063686 -1.45343157 -4.68514031 -0.18358306 0 0 Z " fill="#B36025" transform="translate(78.8125,205.3125)"/>
<path d="M0 0 C1.76953125 1.60546875 1.76953125 1.60546875 3 3 C0.60496313 4.12672175 -1.7909871 5.25142558 -4.1875 6.375 C-4.86103516 6.69210938 -5.53457031 7.00921875 -6.22851562 7.3359375 C-9.78222638 9.00011424 -13.33496248 10.59091761 -17 12 C-16 9 -16 9 -13.63671875 7.68359375 C-12.66347656 7.27238281 -11.69023438 6.86117187 -10.6875 6.4375 C-9.23923828 5.81681641 -9.23923828 5.81681641 -7.76171875 5.18359375 C-6.85035156 4.79300781 -5.93898438 4.40242188 -5 4 C-3.66094296 3.34490576 -2.32504968 2.68298285 -1 2 C-4.66864051 0.31841854 -7.49416047 -0.24028871 -11.51953125 -0.1953125 C-12.54111328 -0.18886719 -13.56269531 -0.18242188 -14.61523438 -0.17578125 C-15.67033203 -0.15902344 -16.72542969 -0.14226562 -17.8125 -0.125 C-18.88693359 -0.11597656 -19.96136719 -0.10695313 -21.06835938 -0.09765625 C-23.71246854 -0.07415306 -26.35611872 -0.04129575 -29 0 C-22.53449249 -6.46550751 -7.58338938 -3.62036075 0 0 Z " fill="#C56825" transform="translate(93,106)"/>
<path d="M0 0 C3.43752007 1.5277867 6.18953688 3.50181056 9 6 C9 6.66 9 7.32 9 8 C6.13275314 7.42655063 5.1385485 7.1385485 3 5 C2.690625 5.639375 2.38125 6.27875 2.0625 6.9375 C1 9 1 9 0 10 C0.99 10.99 1.98 11.98 3 13 C2.67 13.66 2.34 14.32 2 15 C1.5875 14.60167969 1.175 14.20335937 0.75 13.79296875 C-3.60271464 9.7997417 -7.37029996 7.77780001 -13 6 C-13 5.67 -13 5.34 -13 5 C-6.25 5.875 -6.25 5.875 -4 7 C-4 6.01 -4 5.02 -4 4 C-3.01 3.67 -2.02 3.34 -1 3 C-0.67 2.01 -0.34 1.02 0 0 Z " fill="#E17628" transform="translate(92,26)"/>
<path d="M0 0 C0.66 0.33 1.32 0.66 2 1 C1.67 1.99 1.34 2.98 1 4 C0.34 4 -0.32 4 -1 4 C-0.98839844 4.63808594 -0.97679687 5.27617188 -0.96484375 5.93359375 C-0.95582031 6.75988281 -0.94679688 7.58617188 -0.9375 8.4375 C-0.92589844 9.26121094 -0.91429687 10.08492187 -0.90234375 10.93359375 C-1 13 -1 13 -2 14 C-2.21066368 16.28804167 -2.36864841 18.58103822 -2.5 20.875 C-2.89081886 27.67245658 -2.89081886 27.67245658 -4 31 C-4.26961505 34.32097273 -4.44499436 37.64159564 -4.62109375 40.96875 C-5 44 -5 44 -7 47 C-6.60822857 37.05711141 -5.7925217 27.19535635 -4.625 17.3125 C-4.51115967 16.28576172 -4.39731934 15.25902344 -4.2800293 14.20117188 C-3.6189592 8.84910604 -2.8210226 4.62553147 0 0 Z " fill="#D78145" transform="translate(18,65)"/>
<path d="M0 0 C-0.33 0.66 -0.66 1.32 -1 2 C-3.64 2 -6.28 2 -9 2 C-9 2.66 -9 3.32 -9 4 C-11.22909871 4.02714735 -13.45829367 4.04646254 -15.6875 4.0625 C-16.92886719 4.07410156 -18.17023438 4.08570313 -19.44921875 4.09765625 C-22.46235454 4.01478673 -25.08275339 3.70839449 -28 3 C-28 2.34 -28 1.68 -28 1 C-18.65190221 0.33566818 -9.37877608 -0.1598655 0 0 Z " fill="#D76D1D" transform="translate(127,206)"/>
<path d="M0 0 C0.33 0.66 0.66 1.32 1 2 C-1.64 2 -4.28 2 -7 2 C-7 2.66 -7 3.32 -7 4 C-6.34 3.67 -5.68 3.34 -5 3 C-3.00039988 2.960008 -0.99952758 2.95653201 1 3 C1 3.99 1 4.98 1 6 C-8.405 6.495 -8.405 6.495 -18 7 C-18 6.34 -18 5.68 -18 5 C-16.02 4.67 -14.04 4.34 -12 4 C-14.97 3.67 -17.94 3.34 -21 3 C-21 2.67 -21 2.34 -21 2 C-14.07 1.34 -7.14 0.68 0 0 Z " fill="#E69453" transform="translate(136,203)"/>
<path d="M0 0 C0.74636719 -0.00386719 1.49273437 -0.00773437 2.26171875 -0.01171875 C6.14139586 -0.00485206 9.71080898 0.17770224 13.5 1.125 C13.5 1.455 13.5 1.785 13.5 2.125 C11.22953317 2.29658724 8.95859732 2.46197008 6.6875 2.625 C6.00478027 2.67414551 5.32206055 2.72329102 4.61865234 2.77392578 C0.59876683 3.04430477 -3.34406971 3.12614576 -7.375 3 C-11.85680608 2.93997581 -15.37910916 3.80284316 -19.55078125 5.390625 C-21.82994193 6.24930678 -24.09839996 6.73764515 -26.5 7.125 C-24.13462345 4.35766404 -22.10798805 3.46337967 -18.625 2.5 C-17.78195313 2.26023437 -16.93890625 2.02046875 -16.0703125 1.7734375 C-15.22210938 1.55945313 -14.37390625 1.34546875 -13.5 1.125 C-12.74460937 0.93421875 -11.98921875 0.7434375 -11.2109375 0.546875 C-7.46347031 -0.03630433 -3.78642557 -0.01961879 0 0 Z " fill="#260700" transform="translate(77.5,84.875)"/>
<path d="M0 0 C0 0.66 0 1.32 0 2 C1.98 2 3.96 2 6 2 C6 2.66 6 3.32 6 4 C5.13375 3.835 4.2675 3.67 3.375 3.5 C-0.43329113 2.97042168 -4.21992929 2.83132425 -8.0625 2.75 C-9.81240234 2.71132812 -9.81240234 2.71132812 -11.59765625 2.671875 C-15.37832239 3.03648574 -17.71254854 4.15343152 -21 6 C-21.99 6.33 -22.98 6.66 -24 7 C-24 6.01 -24 5.02 -24 4 C-17.53159869 0.40644372 -7.11002508 -3.55501254 0 0 Z " fill="#1E0300" transform="translate(84,101)"/>
<path d="M0 0 C4.62182868 3.63143682 6.6411523 8.41598524 8 14 C8.31534937 19.03080797 8.24179464 23.9626117 8 29 C7.34 29 6.68 29 6 29 C5.98582031 27.97261719 5.97164063 26.94523437 5.95703125 25.88671875 C5.7198028 17.74614078 4.96966156 11.37369957 1.05859375 4.0390625 C0 2 0 2 0 0 Z " fill="#DA7832" transform="translate(101,34)"/>
<path d="M0 0 C7.59 0 15.18 0 23 0 C23 0.33 23 0.66 23 1 C17.72 1 12.44 1 7 1 C7 1.66 7 2.32 7 3 C10.3 3.33 13.6 3.66 17 4 C17 4.33 17 4.66 17 5 C10.07 5 3.14 5 -4 5 C-4 4.67 -4 4.34 -4 4 C-1.03 4 1.94 4 5 4 C5 3.34 5 2.68 5 2 C3.35 1.67 1.7 1.34 0 1 C0 0.67 0 0.34 0 0 Z " fill="#C67C43" transform="translate(92,206)"/>
<path d="M0 0 C0.99 0.99 1.98 1.98 3 3 C2.67 3.99 2.34 4.98 2 6 C1.34 6 0.68 6 0 6 C0 8.31 0 10.62 0 13 C-0.66 11.68 -1.32 10.36 -2 9 C-2.66 9 -3.32 9 -4 9 C-4.66 7.02 -5.32 5.04 -6 3 C-5.01 3 -4.02 3 -3 3 C-2.67 2.34 -2.34 1.68 -2 1 C-1.34 0.67 -0.68 0.34 0 0 Z " fill="#E76E17" transform="translate(101,38)"/>
<path d="M0 0 C0.99 0.33 1.98 0.66 3 1 C2.67 1.66 2.34 2.32 2 3 C2.6290625 2.855625 3.258125 2.71125 3.90625 2.5625 C9.40566619 1.36985553 14.37666943 0.7917285 20 1 C20 1.33 20 1.66 20 2 C19.29875 2.08636719 18.5975 2.17273438 17.875 2.26171875 C11.8892004 3.14820266 7.55869807 4.38281879 2.65625 7.9765625 C1 9 1 9 -2 9 C-1.505 7.6078125 -1.505 7.6078125 -1 6.1875 C0.14967004 3.07970709 0.14967004 3.07970709 0 0 Z " fill="#DB742B" transform="translate(58,29)"/>
<path d="M0 0 C1.10960573 3.32881718 0.9412896 3.87364252 -0.21484375 7.01171875 C-0.48876953 7.76904297 -0.76269531 8.52636719 -1.04492188 9.30664062 C-1.33947266 10.09232422 -1.63402344 10.87800781 -1.9375 11.6875 C-2.22818359 12.48478516 -2.51886719 13.28207031 -2.81835938 14.10351562 C-3.53739302 16.07201757 -4.26763703 18.03641812 -5 20 C-5.99 19.67 -6.98 19.34 -8 19 C-7.67 18.01 -7.34 17.02 -7 16 C-7.99 16 -8.98 16 -10 16 C-10 15.01 -10 14.02 -10 13 C-8.02 12.67 -6.04 12.34 -4 12 C-3.896875 11.319375 -3.79375 10.63875 -3.6875 9.9375 C-2.85274981 6.37084011 -1.50527246 3.33777806 0 0 Z " fill="#E07427" transform="translate(24,182)"/>
<path d="M0 0 C1.38666271 0.64205605 2.76710464 1.29915078 4.125 2 C0.62061612 3.16812796 -1.16106327 2.46633693 -4.6328125 1.52050781 C-8.3486777 0.65789625 -12.07422881 0.533091 -15.875 0.375 C-16.64972656 0.33632813 -17.42445312 0.29765625 -18.22265625 0.2578125 C-20.10643415 0.16478643 -21.99068256 0.08136825 -23.875 0 C-17.00894917 -4.22786381 -7.15509118 -2.88247959 0 0 Z " fill="#DA833E" transform="translate(87.875,23)"/>
<path d="M0 0 C0.66 0 1.32 0 2 0 C2 0.66 2 1.32 2 2 C2.99 2.33 3.98 2.66 5 3 C1.64908229 3.75363052 -1.43109812 4.11979937 -4.86328125 4.09765625 C-6.19262695 4.09282227 -6.19262695 4.09282227 -7.54882812 4.08789062 C-8.46083984 4.07951172 -9.37285156 4.07113281 -10.3125 4.0625 C-11.24384766 4.05798828 -12.17519531 4.05347656 -13.13476562 4.04882812 C-15.42324373 4.03709234 -17.71158808 4.02067363 -20 4 C-20 3.34 -20 2.68 -20 2 C-17.22949974 1.8053162 -14.45886998 1.61897208 -11.6875 1.4375 C-10.90181641 1.38142578 -10.11613281 1.32535156 -9.30664062 1.26757812 C-8.1706543 1.19506836 -8.1706543 1.19506836 -7.01171875 1.12109375 C-6.31522217 1.0739624 -5.61872559 1.02683105 -4.90112305 0.97827148 C-3 1 -3 1 0 2 C0 1.34 0 0.68 0 0 Z " fill="#E88635" transform="translate(88,207)"/>
<path d="M0 0 C0.33 0 0.66 0 1 0 C1.12375 1.2375 1.2475 2.475 1.375 3.75 C1.75746305 6.8762197 2.30549523 9.28879237 4 12 C6.70889287 11.47905906 8.58718026 10.68843496 11.0625 9.375 C14 8 14 8 17 9 C15.62085075 10.06365759 14.22085398 11.10032483 12.8125 12.125 C12.03519531 12.70507812 11.25789063 13.28515625 10.45703125 13.8828125 C8 15 8 15 5.38671875 14.3671875 C1.51817981 12.15116683 1.51817981 12.15116683 0 10 C-0.29296875 7.51953125 -0.29296875 7.51953125 -0.1875 4.8125 C-0.16042969 3.91144531 -0.13335937 3.01039062 -0.10546875 2.08203125 C-0.07066406 1.39496094 -0.03585938 0.70789063 0 0 Z " fill="#C86B2A" transform="translate(59,110)"/>
<path d="M0 0 C5.28 0.33 10.56 0.66 16 1 C16 1.66 16 2.32 16 3 C7.42857143 4.28571429 7.42857143 4.28571429 4 3 C4 3.66 4 4.32 4 5 C3.01 5 2.02 5 1 5 C0.67 3.35 0.34 1.7 0 0 Z " fill="#BD570D" transform="translate(64,206)"/>
<path d="M0 0 C0.66 0.33 1.32 0.66 2 1 C2 2.65 2 4.3 2 6 C0.68 6 -0.64 6 -2 6 C-2 5.34 -2 4.68 -2 4 C-2.99 4.495 -2.99 4.495 -4 5 C-4 6.32 -4 7.64 -4 9 C-4.66 8.67 -5.32 8.34 -6 8 C-6 7.01 -6 6.02 -6 5 C-6.66 5 -7.32 5 -8 5 C-7.67 4.01 -7.34 3.02 -7 2 C-4.05610218 0.82244087 -3.10046087 0.96651304 0 2 C0 1.34 0 0.68 0 0 Z " fill="#EC6707" transform="translate(62,26)"/>
<path d="M0 0 C4.82360189 -0.19294408 8.49646738 0.24252386 13 2 C13 2.33 13 2.66 13 3 C11.35 3.33 9.7 3.66 8 4 C8 4.33 8 4.66 8 5 C5.69 5 3.38 5 1 5 C0.67 3.35 0.34 1.7 0 0 Z " fill="#D36516" transform="translate(19,202)"/>
<path d="M0 0 C4.95 0 9.9 0 15 0 C15 0.99 15 1.98 15 3 C13.06318839 3.08107583 11.1254066 3.13922475 9.1875 3.1875 C8.10855469 3.22230469 7.02960937 3.25710937 5.91796875 3.29296875 C3 3 3 3 0 0 Z " fill="#D66916" transform="translate(49,206)"/>
<path d="M0 0 C1.16180608 3.92759816 0.75984959 6.97279717 0 11 C-0.33 11.33 -0.66 11.66 -1 12 C-1.23192865 13.51469448 -1.41215238 15.03754562 -1.5625 16.5625 C-1.64628906 17.38878906 -1.73007812 18.21507813 -1.81640625 19.06640625 C-1.87699219 19.70449219 -1.93757813 20.34257813 -2 21 C-2.33 21 -2.66 21 -3 21 C-3.38999191 13.40237976 -2.60758587 7.15533979 0 0 Z " fill="#371100" transform="translate(41,101)"/>
<path d="M0 0 C0.66 0.33 1.32 0.66 2 1 C2 2.66666667 2 4.33333333 2 6 C1.0925 6.0825 0.185 6.165 -0.75 6.25 C-4.40077839 7.09248732 -5.63384583 8.17881618 -8 11 C-6.52670958 5.99081256 -3.72484762 3.48192278 0 0 Z " fill="#DA792F" transform="translate(53,28)"/>
<path d="M0 0 C0.66 0 1.32 0 2 0 C0.62712658 3.69876091 -1.06355453 6.9514476 -3.125 10.3125 C-3.66382813 11.19550781 -4.20265625 12.07851562 -4.7578125 12.98828125 C-5.37269531 13.98408203 -5.37269531 13.98408203 -6 15 C-6.33 14.34 -6.66 13.68 -7 13 C-6.00390625 10.6171875 -6.00390625 10.6171875 -4.5625 7.875 C-3.85287109 6.50988281 -3.85287109 6.50988281 -3.12890625 5.1171875 C-2.75636719 4.41851562 -2.38382813 3.71984375 -2 3 C-1.34 3 -0.68 3 0 3 C0 2.01 0 1.02 0 0 Z " fill="#D57B3F" transform="translate(39,151)"/>
<path d="M0 0 C-2.12232979 1.17176518 -4.24757791 2.33754785 -6.375 3.5 C-6.97828125 3.83386719 -7.5815625 4.16773437 -8.203125 4.51171875 C-12.7734375 7 -12.7734375 7 -15 7 C-14 4 -14 4 -11.6015625 2.578125 C-10.61929688 2.13984375 -9.63703125 1.7015625 -8.625 1.25 C-7.64789063 0.80140625 -6.67078125 0.3528125 -5.6640625 -0.109375 C-3 -1 -3 -1 0 0 Z " fill="#D47530" transform="translate(91,111)"/>
<path d="M0 0 C0.66 0.66 1.32 1.32 2 2 C4.21072977 2.24253813 4.21072977 2.24253813 6.625 2.125 C7.44226563 2.10695313 8.25953125 2.08890625 9.1015625 2.0703125 C9.72804688 2.04710938 10.35453125 2.02390625 11 2 C11 2.33 11 2.66 11 3 C9.41913952 3.36504603 7.83516093 3.71660506 6.25 4.0625 C5.36828125 4.25972656 4.4865625 4.45695312 3.578125 4.66015625 C1.01320972 4.99825872 -0.57091639 4.81158635 -3 4 C-2.01 2.68 -1.02 1.36 0 0 Z " fill="#C56A26" transform="translate(112,99)"/>
<path d="M0 0 C0.98484375 0.01804687 1.9696875 0.03609375 2.984375 0.0546875 C4.10585937 0.08949219 4.10585937 0.08949219 5.25 0.125 C5.25 0.455 5.25 0.785 5.25 1.125 C-2.175 2.61 -2.175 2.61 -9.75 4.125 C-9.75 3.465 -9.75 2.805 -9.75 2.125 C-6.40060119 0.09941119 -3.88037449 -0.09238987 0 0 Z " fill="#C7661E" transform="translate(63.75,84.875)"/>
<path d="M0 0 C0 0.99 0 1.98 0 3 C-3.3 3 -6.6 3 -10 3 C-5.78492722 -0.16130459 -4.93928888 -0.3367697 0 0 Z " fill="#E9A169" transform="translate(137,206)"/>
<path d="M0 0 C2.20227882 3.30341823 2.97797336 6.18443389 4 10 C4.33 10.99 4.66 11.98 5 13 C2 12 2 12 0.8125 10.4375 C-0.37040794 6.88877617 -0.12443279 3.73298379 0 0 Z " fill="#D3813B" transform="translate(1,192)"/>
<path d="M0 0 C-1.5830577 4.2742558 -4.50568404 6.26531794 -8 9 C-8 6 -8 6 -6.7578125 4.39453125 C-5.94957031 3.61142578 -5.94957031 3.61142578 -5.125 2.8125 C-4.59132813 2.28269531 -4.05765625 1.75289063 -3.5078125 1.20703125 C-2 0 -2 0 0 0 Z " fill="#2C0D01" transform="translate(51,92)"/>
<path d="M0 0 C0.66 0 1.32 0 2 0 C2.33 0.99 2.66 1.98 3 3 C3.99 3.66 4.98 4.32 6 5 C4.02 6.32 2.04 7.64 0 9 C0 6.03 0 3.06 0 0 Z " fill="#DA6818" transform="translate(46,86)"/>
<path d="M0 0 C-0.66 1.65 -1.32 3.3 -2 5 C-4.31 5 -6.62 5 -9 5 C-4.16129032 0 -4.16129032 0 0 0 Z " fill="#DB7630" transform="translate(64,23)"/>
<path d="M0 0 C0.66 0 1.32 0 2 0 C2 0.66 2 1.32 2 2 C2.99 2.33 3.98 2.66 5 3 C1.37 3.33 -2.26 3.66 -6 4 C-6 3.34 -6 2.68 -6 2 C-3 1 -3 1 0 2 C0 1.34 0 0.68 0 0 Z " fill="#D87830" transform="translate(88,207)"/>
<path d="M0 0 C1 2 1 2 0.22265625 4.3828125 C-0.16019531 5.28773438 -0.54304688 6.19265625 -0.9375 7.125 C-1.31777344 8.03507813 -1.69804687 8.94515625 -2.08984375 9.8828125 C-2.39019531 10.58148438 -2.69054687 11.28015625 -3 12 C-4.1484375 10.265625 -4.1484375 10.265625 -5 8 C-4.1015625 5.859375 -4.1015625 5.859375 -2.625 3.75 C-2.14289062 3.04359375 -1.66078125 2.3371875 -1.1640625 1.609375 C-0.77992187 1.07828125 -0.39578125 0.5471875 0 0 Z " fill="#D97B38" transform="translate(29,170)"/>
<path d="M0 0 C2.64 0.99 5.28 1.98 8 3 C8 3.99 8 4.98 8 6 C6.68 6.33 5.36 6.66 4 7 C4.33 6.01 4.66 5.02 5 4 C2.525 3.01 2.525 3.01 0 2 C0 1.34 0 0.68 0 0 Z " fill="#B46126" transform="translate(87,104)"/>
<path d="M0 0 C0.99 0.33 1.98 0.66 3 1 C3 1.66 3 2.32 3 3 C3.66 3 4.32 3 5 3 C3.75023244 6.65316671 3.32901247 7.78065836 0 10 C0 9.01 0 8.02 0 7 C0.66 7 1.32 7 2 7 C2 5.35 2 3.7 2 2 C1.34 2 0.68 2 0 2 C0 1.34 0 0.68 0 0 Z " fill="#C77231" transform="translate(45,136)"/>
<path d="M0 0 C-1.24176695 0.70226141 -2.49385599 1.38629109 -3.75 2.0625 C-4.79414062 2.63677734 -4.79414062 2.63677734 -5.859375 3.22265625 C-8.36140628 4.1312406 -9.5332355 3.88336837 -12 3 C-10.75823305 2.29773859 -9.50614401 1.61370891 -8.25 0.9375 C-7.20585938 0.36322266 -7.20585938 0.36322266 -6.140625 -0.22265625 C-3.63859372 -1.1312406 -2.4667645 -0.88336837 0 0 Z " fill="#351002" transform="translate(63,88)"/>
<path d="M0 0 C0.66 0.33 1.32 0.66 2 1 C1.34 2.32 0.68 3.64 0 5 C-1.65 5 -3.3 5 -5 5 C-4.67 4.01 -4.34 3.02 -4 2 C-2.68 2 -1.36 2 0 2 C0 1.34 0 0.68 0 0 Z " fill="#D6661B" transform="translate(147,202)"/>
<path d="M0 0 C0.66 0.33 1.32 0.66 2 1 C1.67 1.99 1.34 2.98 1 4 C0.34 4 -0.32 4 -1 4 C-1 6.97 -1 9.94 -1 13 C-1.33 13 -1.66 13 -2 13 C-2.05416188 11.39620659 -2.09286638 9.79188594 -2.125 8.1875 C-2.14820313 7.29417969 -2.17140625 6.40085937 -2.1953125 5.48046875 C-2 3 -2 3 0 0 Z " fill="#D7762D" transform="translate(18,65)"/>
<path d="M0 0 C-0.99 0.66 -1.98 1.32 -3 2 C-3.680625 2.53625 -4.36125 3.0725 -5.0625 3.625 C-7 5 -7 5 -9 5 C-9 4.01 -9 3.02 -9 2 C-5.86501708 0.14223235 -3.62528568 -0.20140476 0 0 Z " fill="#280B00" transform="translate(69,103)"/>
<path d="M0 0 C5.75 1.75 5.75 1.75 8 4 C7.67 4.66 7.34 5.32 7 6 C6.34 6 5.68 6 5 6 C5 5.34 5 4.68 5 4 C4.34 4 3.68 4 3 4 C3 3.34 3 2.68 3 2 C2.01 1.67 1.02 1.34 0 1 C0 0.67 0 0.34 0 0 Z " fill="#2B0C01" transform="translate(45,135)"/>
</svg>
